<?xml version="1.0" standalone="no"?>
<!DOCTYPE svg PUBLIC "-//W3C//DTD SVG 20010904//EN"
 "http://www.w3.org/TR/2001/REC-SVG-20010904/DTD/svg10.dtd">
<svg version="1.0" xmlns="http://www.w3.org/2000/svg"
 width="201.000000pt" height="201.000000pt" viewBox="0 0 201.000000 201.000000"
 preserveAspectRatio="xMidYMid meet">
<metadata>
Created by potrace 1.14, written by Peter Selinger 2001-2017
</metadata>
<g transform="translate(0.000000,201.000000) scale(0.100000,-0.100000)"
fill="#000000" stroke="none">
<path d="M0 1005 l0 -1005 1005 0 1005 0 0 1005 0 1005 -1005 0 -1005 0 0
-1005z m809 405 c-12 -28 -36 -62 -53 -75 l-31 -25 32 9 c18 5 46 19 63 31 39
28 41 4 3 -32 -36 -33 -74 -52 -148 -73 -89 -26 -112 -40 -125 -80 -16 -49 -5
-86 39 -137 44 -49 140 -122 121 -92 -8 15 -8 28 3 58 16 47 37 59 37 22 0
-41 52 -91 117 -112 80 -26 266 -27 340 -1 61 21 103 65 103 108 0 41 15 36
34 -11 13 -32 14 -46 5 -62 -15 -29 71 33 116 84 48 53 62 105 40 151 -17 36
-52 56 -125 72 -54 12 -125 51 -154 86 -29 34 -28 53 2 26 20 -18 92 -50 98
-44 3 2 -7 12 -21 21 -32 21 -75 106 -75 148 l1 33 19 -39 c47 -95 118 -156
209 -183 31 -9 67 -23 81 -31 l25 -16 -22 25 c-19 21 -45 79 -60 134 -8 32 71
-54 97 -105 13 -26 25 -71 28 -108 4 -56 2 -65 -19 -89 -23 -24 -23 -25 -2
-14 32 16 62 58 69 97 3 19 10 31 15 28 14 -8 11 -61 -6 -102 -31 -72 -194
-216 -299 -263 -54 -24 -55 -6 10 -183 46 -126 52 -155 32 -158 -42 -5 -75 -4
-89 4 -10 4 -37 65 -65 148 -29 83 -54 138 -60 136 -30 -11 -198 -16 -264 -7
-41 5 -76 8 -78 7 -1 -2 -25 -65 -52 -141 -27 -76 -51 -140 -54 -142 -13 -13
-92 -14 -109 -1 -17 12 -14 22 38 161 30 81 55 151 55 155 0 4 -33 24 -73 44
-81 42 -204 144 -243 202 -28 40 -41 103 -29 133 5 14 10 8 21 -27 7 -26 25
-57 40 -70 25 -24 26 -24 15 -3 -32 63 -1 189 65 262 26 29 48 50 50 49 7 -8
-40 -126 -59 -147 l-22 -25 25 16 c14 8 50 22 81 31 92 27 172 99 210 189 l14
33 3 -27 c2 -14 -7 -50 -19 -78z m313 -77 c9 -10 43 -92 76 -183 45 -121 58
-166 49 -172 -19 -13 -87 -32 -92 -26 -3 2 -25 60 -49 129 -24 68 -47 131 -51
140 -4 11 -14 14 -30 11 -21 -4 -30 -22 -72 -143 -44 -129 -50 -139 -70 -134
-45 11 -74 25 -79 39 -7 17 101 314 123 339 13 13 33 17 98 17 65 0 85 -4 97
-17z"/>
</g>
</svg>
